<?xml version="1.0" standalone="no"?><!DOCTYPE svg PUBLIC "-//W3C//DTD SVG 1.1//EN"
    "http://www.w3.org/Graphics/SVG/1.1/DTD/svg11.dtd">
<svg xmlns:xlink="http://www.w3.org/1999/xlink" t="1633535804119" class="icon" viewBox="0 0 1024 1024" version="1.1" xmlns="http://www.w3.org/2000/svg"
     p-id="2380" width="128" height="128">
    <defs>
        <style type="text/css"></style>
    </defs>
    <path
        d="M574.9 672.5L422.1 825.3c-28.9 28.9-68.4 47-112.3 48.4-1.9 0.1-3.8 0.1-5.6 0.1-91.3 0-165.2-71.5-168.2-162.8-1.5-44.9 14.7-87.7 45.4-120.6 1.3-1.4 154.5-154.3 155.8-155.6l-19.5-19.5c-0.9 0.9-153.6 153.6-154.5 154.6-35.3 36.8-56.5 87.1-54.7 142.1C112 818 199 901.6 304.3 901.6c2.2 0 4.3 0 6.5-0.1 51.3-1.7 97.4-22.8 131-56.4l152.8-152.8-19.7-19.8z"
        fill="#515151" p-id="2381"></path>
    <path d="M326.9 425.5m-13.8 0a13.8 13.8 0 1 0 27.6 0 13.8 13.8 0 1 0-27.6 0Z" fill="#515151" p-id="2382"></path>
    <path d="M584.2 682.8m-13.8 0a13.8 13.8 0 1 0 27.6 0 13.8 13.8 0 1 0-27.6 0Z" fill="#515151" p-id="2383"></path>
    <path
        d="M416.4 355.6l152.8-152.8c28.9-28.9 68.4-47 112.3-48.4 1.9-0.1 3.8-0.1 5.6-0.1 91.3 0 165.1 71.5 168.1 162.8 1.5 44.9-14.7 87.7-45.4 120.6-1.2 1.3-154.3 154.3-155.7 155.6l19.5 19.5c0.9-0.9 153.6-153.6 154.5-154.6 35.3-36.8 56.5-87.1 54.7-142.1-3.5-106-90.5-189.6-195.8-189.6-2.2 0-4.3 0-6.5 0.1-51.3 1.7-97.4 22.8-131 56.4L396.7 335.8l19.7 19.8z"
        fill="#515151" p-id="2384"></path>
    <path d="M664.5 602.6m-13.8 0a13.8 13.8 0 1 0 27.6 0 13.8 13.8 0 1 0-27.6 0Z" fill="#515151" p-id="2385"></path>
    <path d="M407.1 345.2m-13.8 0a13.8 13.8 0 1 0 27.6 0 13.8 13.8 0 1 0-27.6 0Z" fill="#515151" p-id="2386"></path>
    <path
        d="M658.9 370.4L352 677.2c-5.4 5.4-14.2 5.4-19.6 0-5.4-5.4-5.4-14.2 0-19.6l306.9-306.9c5.4-5.4 14.2-5.4 19.6 0 5.4 5.5 5.4 14.3 0 19.7z"
        fill="#515151" p-id="2387"></path>
</svg>